<svg width="3439" height="828" viewBox="0 0 3439 828" fill="none" xmlns="http://www.w3.org/2000/svg">
<path d="M197.483 153.695C222.014 153.148 245.323 153.69 269.792 153.884C302.09 153.979 334.387 154.235 366.681 154.654L420.927 155.185C440.024 155.384 461.117 154.695 479.504 159.584C517.874 169.79 550.562 190.225 571.157 224.754C592.286 260.191 597.791 312.008 587.687 351.607C577.871 390.07 557.333 425.041 525.2 448.815C514.379 456.82 503.699 462.809 492.245 469.675L553.283 572.388C558.107 580.481 582.421 619.438 583.75 625.176C583.229 627.673 582.653 627.975 580.881 629.768C574.918 631.146 542.757 630.408 534.693 630.38L428.985 629.937C421.623 616.935 412.412 596.099 405.782 582.134L365.746 497.344C362.188 502.472 357.582 508.115 353.712 513.103L186.097 725.501C178.667 734.931 135.123 792.649 128.3 797.501C126.319 797.909 125.072 798.408 123.205 797.712C123.267 795.026 129.751 775.737 131.163 771.286L147.088 720.466L205.548 535.748C214.642 506.959 225.73 475.031 233.794 446.426C198.234 446.117 162.784 446.495 127.236 445.795C128.896 431.66 138.276 396.843 141.966 381.605L170.733 262.644L188.008 190.295C190.123 181.436 194.468 161.278 197.483 153.695Z" fill="#1A9CA1"/>
<path d="M312.723 221.696C314.224 221.603 315.727 221.539 317.232 221.503C338.452 221.053 359.382 238.761 373.719 252.549C389.005 238.57 431.614 202.103 451 233.721C461.047 250.107 455.95 280.031 451.428 297.97C458.417 299.831 465.252 302.246 471.861 305.194C489.369 313.035 514.035 330.288 503.143 353.219C494.474 371.465 469.414 380.467 451.428 386.465C456.737 410.221 465.765 454.925 433.639 463.42C431.896 463.506 430.152 463.548 428.408 463.546C409.234 463.407 386.558 444.69 373.888 431.887C358.377 448.45 316.622 481.691 297.152 451.471C285.568 433.494 291.56 406.148 296.009 386.535C288.506 384.154 281.153 381.326 273.989 378.065C239.409 361.998 225.921 334.63 264.552 311.206C274.845 304.964 284.933 301.815 296.227 298C289.963 274.491 281.819 231.409 312.723 221.696Z" fill="white"/>
<path d="M359.256 298.498C370.653 297.419 387.184 298.247 398.518 298.927C408.496 315.089 414.543 324.458 423.993 341.743C413.896 358.721 411.512 367.762 398.399 385.803L388.288 386.213C375.371 386.849 362.265 386.316 349.326 386.007C338.627 371.616 332.136 358.317 324.084 342.412C331.367 326.777 339.476 313.423 348.8 298.934L359.256 298.498Z" fill="#2397A0"/>
<path d="M368.839 318.873C381.847 316.082 394.651 324.363 397.45 337.372C400.241 350.379 391.958 363.189 378.957 365.985C365.942 368.781 353.133 360.5 350.339 347.488C347.545 334.477 355.832 321.665 368.839 318.873Z" fill="#E6D046"/>
<path d="M315.329 231.53L316.248 231.494C335.654 230.887 353.719 247.461 366.997 259.865C358.039 269.659 351.787 277.93 343.855 288.535C343.106 288.997 310.396 294.278 305.746 295.436C302.136 277.962 292.161 239.454 315.329 231.53Z" fill="#2397A0"/>
<path d="M306.041 389.302C314.884 391.666 333.708 394.631 342.601 395.304C350.799 406.129 357.674 414.778 366.821 424.795C360.81 430.714 354.812 435.675 348.267 440.931C346.813 442.018 345.316 443.045 343.778 444.007C322.283 457.429 302.079 458.803 300.66 427.103C300.065 413.801 302.794 402.084 306.041 389.302Z" fill="#2397A0"/>
<path d="M426.264 231.558C456.526 229.075 445.276 278.943 441.817 295.295C429.371 292.532 419.232 290.279 406.443 289.608C405.444 289.473 404.446 289.156 403.764 288.324C396.205 279.018 389.216 268.431 380.603 260.062C394.342 247.051 407.314 235.192 426.264 231.558Z" fill="#2397A0"/>
<path d="M439.138 389.741C440.72 389.494 439.939 389.389 441.465 390.136C447.013 402.476 449.825 432.881 442.393 445.23C432.901 460.999 412.363 448.979 401.296 441.915C394.588 437.334 387.191 430.553 380.954 425.068C389.209 415.497 396.993 405.533 404.277 395.209C416.842 394.505 427.016 392.404 439.138 389.741Z" fill="#2397A0"/>
<path d="M298.26 308.11C299.234 308.605 310.858 338.428 312.524 342.337C307.012 354.155 303.362 364.519 299.049 376.816C289.231 374.051 283.326 371.512 274.109 367.069C224.276 341.77 267.208 317.724 298.26 308.11Z" fill="#2397A0"/>
<path d="M448.75 307.801C480.264 317.769 522.374 340.186 473.591 367.221C465.4 371.111 457.236 374.006 448.63 376.766C444.735 365.149 440.192 353.758 435.032 342.645C440.354 330.61 444.58 320.269 448.75 307.801Z" fill="#2397A0"/>
<path d="M389.764 396.292L390.404 396.976C386.312 403.406 378.767 412.232 373.705 417.871L367.222 410.218C363.51 405.616 359.832 400.982 356.197 396.316C367.025 396.851 378.943 396.696 389.764 396.292Z" fill="#2397A0"/>
<path d="M373.719 266.99C377.558 270.079 387.88 284.012 390.932 288.285L373.283 288.167C367.834 288.105 362.005 288.266 356.521 288.317C362.293 281.402 367.792 274.064 373.719 266.99Z" fill="#2397A0"/>
<path d="M411.835 300.698C420.603 301.147 430.004 303.3 438.667 305.027C436.909 311.576 435.249 316.027 432.746 322.311L428.9 330.636C424.056 320.434 417.967 310.186 411.835 300.698Z" fill="#2397A0"/>
<path d="M329.541 301.218C331.028 300.915 333.961 300.458 335.099 301.38C332.637 305.387 319.858 328.53 317.793 329.516C314.659 321.387 311.702 313.192 308.925 304.934C315.772 303.559 322.645 302.32 329.541 301.218Z" fill="#2397A0"/>
<path d="M318.195 354.878C319.603 356.174 333.097 380.028 335.747 384.164L327.587 383.048C321.499 382.166 314.785 380.638 308.706 379.393C311.599 371.119 314.764 362.943 318.195 354.878Z" fill="#2397A0"/>
<path d="M429.153 354.245C432.5 361.206 436.276 371.89 438.941 379.21C433.189 380.679 429.069 381.703 423.233 382.571C420.104 383.141 415.618 383.394 412.356 383.676C419.078 373.986 423.746 364.677 429.153 354.245Z" fill="#2397A0"/>
<path d="M356.746 0.0128113C360.627 -0.459032 386.643 12.2456 391.621 14.5141L627.983 122.364C654.491 134.459 681.097 146.352 707.521 158.632C716.225 162.674 715.825 165.484 715.958 174.347C716.099 184.11 716.014 193.911 716.007 203.682L715.979 382.148C715.986 401.975 716.38 423.323 715.726 443.048C715.213 457.726 713.8 472.359 711.507 486.866C706.03 522.162 694.942 556.357 678.678 588.16C660.313 623.643 634.515 651.954 605.863 679.533C538.911 743.974 446.577 799.28 357.843 827.556C348.056 824.968 334.433 819.567 325.018 815.883C276.939 796.657 231.118 772.207 188.378 742.968C193.875 736.471 199.106 729.488 204.186 722.66C249.723 756.013 305.861 781.067 358.145 801.65C373.937 794.688 389.919 788.571 405.76 781.405C477.409 748.974 543.046 706.894 598.726 650.969C612.557 637.074 631.105 616.675 642.123 600.15C668.947 559.91 685.133 509.205 689.204 461.16C691.124 438.525 690.639 415.219 690.646 392.555L690.667 178.408C681.097 173.466 667.921 167.873 657.866 163.288L593.291 133.957C515.35 98.4375 435.271 62.9227 357.976 26.3516C330.978 39.469 303.279 51.9578 275.879 64.2623C192.211 101.837 109.19 141.252 25.3108 178.325C26.2066 239.439 24.768 301.426 25.3502 362.608C25.616 390.594 24.6949 420.239 25.9211 447.999C28.207 499.734 45.1854 559.653 75.0731 602.435C92.4143 627.258 124.534 658.62 147.126 678.844C144.197 685.799 140.763 697.282 138.308 704.743C114.779 687.142 78.754 648.431 60.6119 625.514C26.0568 581.859 6.1394 517.701 1.49245 462.7C-0.507939 439.023 0.155121 409.895 0.188168 385.726L0.220505 214.521C0.174099 199.697 -0.601445 176.977 1.06356 162.766C10.6457 156.755 34.2679 146.705 45.2001 141.731L275.89 36.5437C301.959 24.6844 330.495 10.9784 356.746 0.0128113Z" fill="#0D385B"/>
<path d="M3292.98 171.512C3361.96 160.824 3426.57 207.935 3437.44 276.835C3448.3 345.736 3401.32 410.43 3332.42 421.467C3263.26 432.542 3198.24 385.39 3187.33 316.243C3176.42 247.097 3223.76 182.24 3292.98 171.512ZM3328.74 377.203C3373.03 368.264 3401.82 325.309 3393.26 280.974C3384.68 236.636 3341.93 207.498 3297.5 215.697C3252.55 223.994 3222.97 267.325 3231.64 312.19C3240.31 357.054 3283.92 386.249 3328.74 377.203Z" fill="#0D395C"/>
<path d="M2971.32 177.093C2997.37 174.907 3022.85 176.856 3048.71 179.316C3159.35 189.847 3186.49 332.552 3101.49 395.245C3052.61 424.124 2999.61 416.18 2943.54 416.292C2944.72 337.707 2943.64 256.229 2943.53 177.438C2952.45 177.57 2962.32 177.227 2971.32 177.093ZM3084.31 352.903C3090.36 344.845 3094.62 338.906 3098.57 329.513C3111.56 298.686 3106.03 255.406 3078.05 234.491C3054 216.498 3017.32 219.016 2988.92 219.813C2989.08 269.429 2987.87 325.063 2989.36 374.128C3024.94 374.396 3054.68 376.735 3084.31 352.903Z" fill="#0D395C"/>
<path d="M1029.99 177.102C1062.36 173.953 1098.65 174.598 1130.06 182.413C1188.97 197.068 1201.81 266.271 1155.98 303.753C1146.79 311.269 1139.57 315.073 1129.07 320.52C1151.05 347.108 1176.96 386.07 1197.12 414.92C1178.73 414.802 1161.86 415.449 1143.54 416.256C1122.79 386.733 1099.08 355.761 1080.46 325.424L1058.91 326.362L1059.06 415.472C1043.95 415.047 1028.35 415.852 1013.21 416.412L1013 177.633L1029.99 177.102ZM1059.71 284.2C1084.11 284.606 1104.17 286.635 1126.73 275.494C1138.49 262.201 1146.94 242.964 1130.97 229.609C1111.51 213.332 1083.51 216.051 1059.91 217.11C1060.23 239.472 1060.16 261.839 1059.71 284.2Z" fill="#0D395C"/>
<path d="M2837.14 177.219C2852.02 177.704 2868.13 177.35 2883.11 177.296C2883.18 201.922 2886.38 407.539 2880.7 414.828L2874.58 415.015C2861.7 415.116 2847.54 415.918 2834.55 416.381C2826.34 401 2812.56 380.043 2803.27 364.737L2727.55 240.333C2733.65 284.097 2731.3 369.323 2731.06 415.641C2715.9 415.412 2700.75 415.32 2685.59 415.366C2688.03 337.111 2685.52 256.188 2685.48 177.557L2739.49 177.607C2769.38 221.94 2813.81 296.101 2840.56 344.437C2836.21 306.196 2837.24 217.714 2837.14 177.219Z" fill="#0D395C"/>
<path d="M2509.11 177.191C2527.39 177.819 2543.59 177.599 2561.81 177.195C2593.28 252.536 2624.25 338.301 2653.26 415.097C2637.04 414.604 2619.33 415.678 2603 416.344L2582.22 358.566L2567.8 358.973C2541.33 359.262 2514.84 359.135 2488.37 358.593L2468.39 416.17C2452.04 415.094 2434.66 415.345 2418.2 415.301L2509.11 177.191ZM2503.38 318.019L2540.25 317.871L2567.18 318.054C2563.3 306.348 2539.86 232.194 2534.74 228.678C2524.74 258.62 2514.29 288.404 2503.38 318.019Z" fill="#0D395C"/>
<path d="M1503.32 177.492L1555.56 177.288C1559.83 186.757 1564.33 197.942 1567.93 207.674C1593.51 276.791 1622.81 345.726 1646.85 415.308C1630.48 414.641 1613.27 415.805 1596.85 416.617C1593.15 402.645 1581.88 373.412 1576.7 358.677L1560.44 359.119C1534.56 359.213 1508.68 359.049 1482.81 358.631C1476.77 377.796 1469.21 397.367 1462.24 416.273C1446.13 414.861 1428.43 415.342 1412.14 415.442C1443.39 336.829 1472.55 256.478 1503.32 177.492ZM1497.61 317.921L1531.53 317.862L1561.55 317.993C1557.88 307.429 1532.87 231.655 1528.76 227.175C1519.4 258.002 1508.58 287.643 1497.61 317.921Z" fill="#0D395C"/>
<path d="M1240.81 177.408C1290 178.934 1345.53 177.786 1395.1 177.467L1395.36 219.756L1286.57 219.64C1286.82 238.054 1286.55 257.052 1286.5 275.518L1384.22 275.015L1384.23 317.966C1351.79 317.265 1319.35 317.278 1286.91 318.001L1286.87 373.699C1322.49 372.636 1359.39 373.028 1395.11 372.965L1395.34 415.033C1348.05 415.351 1286.2 413.17 1240.72 416.174L1240.81 177.408Z" fill="#0D395C"/>
<path d="M1787.66 171.447C1788.25 171.388 1788.84 171.346 1789.42 171.32C1824.01 169.802 1853.05 186.76 1877.5 209.417C1866.77 221.863 1857.83 230.082 1845.86 241.125C1827.85 225.175 1811.9 213.311 1786.14 213.311C1764.98 213.508 1744.76 222.118 1729.96 237.241C1714.01 253.288 1705.17 275.051 1705.4 297.666C1705.69 345.991 1741.56 379.853 1789.57 379.473C1817.41 379.253 1833.12 365.896 1851.31 347.052C1862.52 356.438 1874.25 368.019 1884.97 378.164C1857.93 402.696 1832.66 419.369 1795.18 421.831C1761.11 424.176 1727.5 412.841 1701.82 390.338C1676.95 368.67 1661.76 337.985 1659.61 305.083C1654.6 225.067 1711.17 176.062 1787.66 171.447Z" fill="#0D395C"/>
<path d="M2371.17 177.343L2420.92 177.589L2403.78 224.172C2380.48 288.407 2356.64 352.443 2332.26 416.272C2316.17 414.704 2300.04 415.765 2283.89 416.445C2277.21 391.28 2260.6 350.864 2251.58 325.087C2234.42 276.017 2217.21 225.808 2197.83 177.707L2247.23 177.527C2257.31 198.831 2268.98 234.404 2276.55 256.949C2287.88 289.716 2298.53 322.717 2308.49 355.931C2328.62 296.137 2349.51 236.601 2371.17 177.343Z" fill="#0D395C"/>
<path d="M1880.52 177.654L2063.82 177.412L2063.95 219.57L1995.39 219.625C1995.98 264.216 1995.47 309.967 1995.5 354.654C1995.42 375.242 1995.56 395.832 1995.93 416.416C1978.23 414.94 1966.56 415.145 1948.94 416.526C1947.38 354.999 1948.1 280.881 1949.56 219.491L1881.4 220.101L1880.52 177.654Z" fill="#0D395C"/>
<path d="M1356.28 536.732C1389.29 529.408 1422.01 550.141 1429.46 583.103C1436.9 616.065 1416.28 648.84 1383.32 656.402C1350.2 664.005 1317.2 643.261 1309.71 610.128C1302.23 576.997 1323.1 544.094 1356.28 536.732ZM1374.2 636.622C1395.83 633.98 1411.36 614.507 1409.11 592.841C1406.86 571.175 1387.66 555.304 1365.94 557.158C1351.54 558.388 1338.92 567.292 1332.95 580.447C1326.97 593.601 1328.56 608.955 1337.12 620.602C1345.67 632.249 1359.85 638.375 1374.2 636.622Z" fill="#2397A0"/>
<path d="M2589.52 536.653C2622.36 529.796 2654.62 550.623 2661.89 583.376C2669.15 616.127 2648.71 648.622 2616.02 656.275C2594.53 661.309 2571.97 654.402 2557 638.191C2542.03 621.979 2536.92 598.972 2543.65 577.956C2550.37 556.94 2567.9 541.162 2589.52 536.653ZM2608.64 636.324C2628.11 633.124 2642.35 616.248 2642.22 596.537C2642.13 584.931 2637.02 573.93 2628.2 566.382C2619.39 558.835 2607.72 555.482 2596.24 557.194C2574.23 560.472 2559.11 581.04 2562.55 603.009C2566 624.976 2586.69 639.933 2608.64 636.324Z" fill="#2397A0"/>
<path d="M2142.17 176.98L2147.23 177.134C2147.76 178.014 2148.42 179.108 2149.2 180.417C2148.83 248.627 2148.41 351.358 2149.38 416.425C2135.65 416.274 2121.41 416.562 2107.63 416.649L2103.91 416.041C2103.18 414.444 2102.73 200.241 2102.51 177.16C2114.78 177.738 2129.69 177.164 2142.17 176.98Z" fill="#0D395C"/>
<path d="M1726.74 537.703L1749.69 536.853L1749.97 656.357L1727.73 656.072L1727.74 613.817C1727.72 600.752 1728.26 588.419 1728.88 575.367C1690.67 645.51 1691.1 648.097 1654.38 575.712L1654.47 656.081L1632.25 655.801C1633.03 617.015 1632.23 576.612 1631.99 537.71L1653.48 537.804C1666.84 557.474 1680.08 581.837 1690.93 603.049C1699.06 585.013 1716.55 555.827 1726.74 537.703Z" fill="#2397A0"/>
<path d="M1470.44 537.546C1473.14 537.474 1484.44 537.184 1486.16 537.981C1502.61 545.626 1520.41 586.181 1528.52 601.744C1540.86 581.863 1552.54 558.986 1563.66 538.153L1587.62 537.524C1587.46 577.139 1587.51 616.755 1587.77 656.368L1566.21 655.775L1565.88 611.871C1566.01 599.861 1565.97 587.848 1565.78 575.839C1556.66 590.354 1544.06 630.091 1524.52 627.052C1512.18 619.103 1497.98 588.107 1490.46 574.003C1493.54 596.387 1492.84 632.406 1492.96 656.192L1470.48 655.763L1470.44 537.546Z" fill="#2397A0"/>
<path d="M2701.98 537.83C2733.63 536.676 2793.18 532.194 2783.78 582.979C2781.26 596.527 2769.45 603.118 2758.7 609.907C2770.64 623.568 2781.67 640.411 2792.03 655.467L2768.13 655.897C2756.5 646.858 2741.44 613.902 2729.88 613.281C2722.9 621.029 2725.09 644.753 2725.34 655.93L2703.3 655.454L2701.98 537.83ZM2725.36 591.948C2735.89 591.939 2751.14 593.246 2759.38 586.675C2770.31 556.469 2747.42 558.119 2725.27 557.781L2725.36 591.948Z" fill="#2397A0"/>
<path d="M1925.99 537.663L1949.93 536.825C1963.26 552.75 1990.51 601.866 1999.59 620.914C1999.56 594.679 2000.22 563.863 1998.28 538.112L2021.27 537.51C2020.71 553.604 2022.89 650.316 2019.3 656.336L1997.91 655.244C1979.7 627.549 1962.14 596.842 1946.07 567.885C1948.81 595.971 1948.2 627.836 1948.27 656.395L1926.4 656.006C1925.73 617.051 1926.12 576.725 1925.99 537.663Z" fill="#2397A0"/>
<path d="M2912.74 537.552L2937.98 537.754C2954.35 576.505 2969.17 615.887 2982.4 655.811L2958.59 656.099C2955.61 645.996 2953.59 629.515 2942.55 627.571L2902.96 627.452C2900.96 635.73 2897.18 647.267 2894.68 655.659L2870.05 655.479C2884.26 616.3 2900.3 577.168 2912.74 537.552ZM2909.93 608.233L2933.37 608.174L2939.21 607.796C2941.76 600.77 2929.6 568.528 2924.62 564.814C2919.9 581.008 2916.06 592.538 2909.93 608.233Z" fill="#2397A0"/>
<path d="M1861.37 537.858C1867.55 537.438 1875.22 536.463 1881.02 538.239C1884.74 542.648 1883.57 543.418 1883.71 550.179C1884.11 586.676 1894.51 659.068 1838.47 657.147C1820.76 656.542 1811.31 651.897 1799.12 639.249C1789.44 607.882 1791.65 570.968 1792.04 538.154L1814.38 537.64C1814.06 561.406 1807.94 617.883 1823.7 630.998C1872.47 671.596 1861.61 547.969 1861.37 537.858Z" fill="#2397A0"/>
<path d="M1220.73 536.146C1244.82 533.764 1255.33 541.051 1272.94 554.966L1258 569.264C1231.47 549.329 1200.09 550.449 1192.38 587.232C1189.86 599.781 1192.46 612.814 1199.61 623.433C1214.74 646.018 1235.74 640.02 1254.9 626.989C1256.79 624.782 1258.39 624.711 1261.18 624.092C1267.03 625.83 1272.37 632.825 1276.68 637.547C1253.12 655.703 1226.95 666.272 1198.71 649.828C1184.6 641.562 1174.38 628.019 1170.3 612.195C1159.73 571.812 1183.36 545.856 1220.73 536.146Z" fill="#2397A0"/>
<path d="M2434.81 537.489C2459.83 538.073 2484.84 538.097 2509.85 537.559L2508.78 559.687C2492.06 559.226 2474.03 559.56 2457.2 559.555V588.988C2467.87 588.557 2491.2 585.961 2500.85 590.514C2505.57 592.745 2505.36 597.916 2506.54 603.454C2502.33 612.367 2467.3 608.965 2457.25 608.745L2457.33 656.154L2434.75 655.763C2435.61 617.511 2434.84 575.983 2434.81 537.489Z" fill="#2397A0"/>
<path d="M2241.18 538.115L2266.57 537.537C2274.97 548.281 2285.09 566.807 2291.98 579.038L2313.58 537.776H2341.37C2334.69 551.229 2320.12 573.218 2311.8 586.63L2302.6 601.558C2302.56 619.546 2303.22 638.047 2303.66 656.068C2296.24 655.67 2288.49 656.007 2281.05 656.204L2280.96 602.2C2268.17 580.839 2254.39 559.285 2241.18 538.115Z" fill="#2397A0"/>
<path d="M2125.07 537.705C2154.86 538.048 2184.64 537.958 2214.44 537.433L2213.83 559.655C2203.65 559.36 2191.64 559.817 2181.32 559.982L2180.06 622.837C2179.8 633.65 2180.85 644.991 2181.63 655.815L2159.14 655.817C2159.24 628.568 2160.58 585.199 2157.73 559.644C2147.31 559.319 2135.48 559.593 2124.94 559.591L2125.07 537.705Z" fill="#2397A0"/>
<path d="M3127.41 537.616L3149.97 537.53C3149.6 570.055 3149.62 602.584 3150.02 635.107L3199.36 635.061L3200.06 656.281C3178.61 654.871 3149.67 655.616 3127.63 655.611C3128.33 617.279 3127.5 576.163 3127.41 537.616Z" fill="#2397A0"/>
<path d="M3017.5 537.652L3040.96 537.604C3039.01 559.126 3039.25 614.015 3040.91 635.216L3089.24 635.113L3090.14 656.076C3067.01 655.336 3041.05 655.81 3017.69 655.707C3020.2 623.666 3017.98 571.163 3017.5 537.652Z" fill="#2397A0"/>
<path d="M2066 537.912L2088.33 537.928C2087.83 577.322 2087.79 616.719 2088.24 656.11L2066.36 655.535L2066 537.912Z" fill="#2397A0"/>
</svg>
