<svg width="1024" height="1024" viewBox="0 0 1024 1024" fill="none" xmlns="http://www.w3.org/2000/svg">
<path d="M687.403 288.408L505.8 205.592C504.884 205.173 503.899 204.987 502.92 205.003C501.941 204.987 500.957 205.173 500.04 205.592L318.437 288.408C316.061 289.492 314.536 291.863 314.536 294.475L314.537 434.212C315.5 496.347 344.815 532.089 347.084 534.763C359.595 550.46 373.373 564.105 387.388 575.895L391.779 562.035C379.809 551.619 368.124 539.784 357.443 526.368C357.393 526.307 357.333 526.235 357.283 526.176C356.999 525.843 328.771 492.172 327.869 434.109V298.761L496.249 221.975L502.807 218.689L509.592 221.975L677.971 298.761V434.109C677.069 492.172 648.841 525.843 648.556 526.176C648.505 526.235 648.447 526.307 648.397 526.368C601.165 585.692 534.365 614.393 509.684 623.867L502.92 626.519L496.156 623.867C481.727 618.328 452.9 606.203 422.007 585.244L413.645 595.833C457.664 626.016 497.611 638.703 500.817 639.723C500.836 639.729 500.855 639.733 500.872 639.74C500.881 639.743 500.895 639.747 500.903 639.749C501.012 639.785 501.125 639.799 501.236 639.828C501.455 639.885 501.671 639.948 501.893 639.983C502.155 640.023 502.417 640.035 502.679 640.045C502.759 640.048 502.836 640.064 502.916 640.064C502.917 640.064 502.919 640.064 502.92 640.064C502.921 640.064 502.923 640.064 502.924 640.064C503.004 640.064 503.083 640.048 503.161 640.045C503.424 640.035 503.685 640.023 503.947 639.983C504.169 639.948 504.387 639.885 504.604 639.828C504.715 639.799 504.828 639.785 504.939 639.749C504.944 639.747 504.96 639.743 504.968 639.74C504.987 639.733 505.004 639.729 505.023 639.723C509.875 638.179 598.843 609.94 658.757 534.763C661.025 532.089 690.339 496.347 691.303 434.212L691.304 294.475C691.304 291.863 689.779 289.492 687.403 288.408Z" fill="#1C375D"/>
<mask id="mask0_1_2" style="mask-type:luminance" maskUnits="userSpaceOnUse" x="379" y="285" width="248" height="341">
<path d="M379.475 622.943L436.909 441.659C437.228 440.652 436.476 439.625 435.42 439.625H383.939C382.404 439.625 381.275 438.192 381.635 436.701L417.604 287.597C417.923 286.317 419.08 285.421 420.4 285.435L552.303 286.637C554.705 286.66 557.095 286.859 559.464 287.249C575.717 289.923 629.5 304.052 626.319 373.753C626.319 373.753 625.387 426.729 575.783 450.493C574.441 451.137 573.956 452.811 574.719 454.091L621.309 532.425C622.396 534.293 621.043 536.636 618.881 536.628L542.516 536.321C540.921 536.315 539.472 535.393 538.789 533.953L507 466.86L382.483 624.537C381.291 626.048 378.895 624.777 379.475 622.943Z" fill="white"/>
</mask>
<g mask="url(#mask0_1_2)">
<path d="M379.475 622.943L436.909 441.659C437.228 440.652 436.476 439.625 435.42 439.625H383.939C382.404 439.625 381.275 438.192 381.635 436.701L417.604 287.597C417.923 286.317 419.08 285.421 420.4 285.435L552.303 286.637C554.705 286.66 557.095 286.859 559.464 287.249C575.717 289.923 629.5 304.052 626.319 373.753C626.319 373.753 625.387 426.729 575.783 450.493C574.441 451.137 573.956 452.811 574.719 454.091L621.309 532.425C622.396 534.293 621.043 536.636 618.881 536.628L542.516 536.321C540.921 536.315 539.472 535.393 538.789 533.953L507 466.86L382.483 624.537C381.291 626.048 378.895 624.777 379.475 622.943Z" fill="url(#paint0_linear_1_2)"/>
</g>
<path d="M550.543 403.249C548.716 397.423 546.327 391.285 543.396 384.987C546.327 378.689 548.716 372.552 550.543 366.725C566.221 371.268 575.483 378.268 575.483 384.987C575.483 391.705 566.221 398.705 550.543 403.249ZM544.337 442.395C538.38 445.832 527.173 440.76 514.832 428.441C519.053 423.873 523.265 418.635 527.339 412.823C534.368 412.16 540.957 411.075 546.944 409.629C551.516 426.601 550.321 438.94 544.337 442.395ZM478.049 442.395C473.155 439.568 471.521 430.853 473.568 418.481C474.036 415.659 474.689 412.715 475.499 409.687C481.48 411.117 488.053 412.189 495.063 412.843C499.132 418.647 503.339 423.877 507.556 428.441C495.212 440.76 484.004 445.832 478.049 442.395ZM446.716 384.987C446.716 378.247 456.039 371.224 471.809 366.681C473.673 372.601 476.091 378.76 478.989 384.987C476.091 391.215 473.673 397.373 471.809 403.292C456.039 398.751 446.716 391.728 446.716 384.987ZM473.568 351.492C471.521 339.121 473.155 330.405 478.049 327.58C479.273 326.873 480.717 326.525 482.348 326.525C488.659 326.525 497.752 331.74 507.563 341.533C503.345 346.096 499.14 351.328 495.069 357.132C488.057 357.785 481.481 358.856 475.499 360.288C474.689 357.26 474.036 354.316 473.568 351.492ZM535.957 370.691C534.405 368.004 532.812 365.409 531.192 362.895C536.321 363.513 541.089 364.363 545.455 365.393C544.097 369.641 542.408 374.128 540.369 378.8C538.989 376.112 537.525 373.405 535.957 370.691ZM511.193 345.329C514.251 348.679 517.352 352.464 520.437 356.645C517.387 356.484 514.275 356.393 511.099 356.393C507.992 356.393 504.945 356.481 501.957 356.636C505.041 352.457 508.139 348.676 511.193 345.329ZM482.033 378.769C480.052 374.2 478.36 369.7 476.976 365.34C481.337 364.321 486.096 363.483 491.212 362.871C489.587 365.393 487.987 367.995 486.431 370.691C484.88 373.376 483.417 376.073 482.033 378.769ZM491.204 407.103C486.091 406.491 481.335 405.652 476.976 404.635C478.36 400.275 480.052 395.775 482.033 391.204C483.417 393.9 484.88 396.599 486.431 399.284C487.985 401.976 489.58 404.583 491.204 407.103ZM511.193 424.632C508.139 421.287 505.041 417.517 501.959 413.339C504.945 413.493 507.992 413.581 511.099 413.581C514.273 413.581 517.385 413.489 520.437 413.329C517.351 417.511 514.251 421.284 511.193 424.632ZM540.369 391.175C542.408 395.847 544.097 400.333 545.455 404.581C541.091 405.611 536.325 406.46 531.2 407.08C532.819 404.567 534.408 401.968 535.957 399.284C537.525 396.568 538.989 393.863 540.369 391.175ZM531.337 396.617C529.06 400.563 526.731 404.267 524.377 407.747C520.147 408.071 515.716 408.248 511.099 408.248C506.553 408.248 502.191 408.075 498.02 407.76C495.664 404.277 493.331 400.567 491.049 396.617C488.815 392.747 486.755 388.856 484.885 384.987C486.755 381.119 488.815 377.228 491.049 373.357C493.329 369.409 495.66 365.697 498.016 362.213C502.188 361.9 506.552 361.727 511.099 361.727C515.717 361.727 520.149 361.904 524.381 362.228C526.733 365.707 529.061 369.415 531.337 373.357C533.623 377.315 535.672 381.197 537.513 384.987C535.672 388.777 533.623 392.66 531.337 396.617ZM540.04 326.525C541.669 326.525 543.115 326.873 544.337 327.58C550.321 331.035 551.516 343.373 546.944 360.344C540.955 358.899 534.363 357.815 527.333 357.151C523.259 351.34 519.048 346.1 514.825 341.533C524.636 331.739 533.729 326.525 540.04 326.525ZM580.816 384.987C580.816 375.272 569.561 366.84 552.005 361.696C557.024 342.807 555.641 327.948 547.004 322.961C538.417 318.003 524.963 324.14 511.195 337.768C497.428 324.141 483.972 318.003 475.383 322.961C468.355 327.019 465.841 337.46 468.307 352.363C468.8 355.348 469.492 358.457 470.345 361.652C452.703 366.791 441.383 375.244 441.383 384.987C441.383 394.731 452.703 403.184 470.345 408.323C469.492 411.516 468.8 414.625 468.307 417.612C465.841 432.513 468.355 442.955 475.383 447.013C477.379 448.165 479.636 448.719 482.1 448.719C490.24 448.719 500.625 442.669 511.193 432.208C521.763 442.669 532.147 448.719 540.287 448.719C542.751 448.719 545.009 448.165 547.004 447.013C555.641 442.027 557.024 427.168 552.005 408.279C569.561 403.135 580.816 394.703 580.816 384.987Z" fill="white"/>
<mask id="mask1_1_2" style="mask-type:luminance" maskUnits="userSpaceOnUse" x="498" y="372" width="26" height="26">
<path d="M523.96 384.987C523.96 392.037 518.244 397.753 511.193 397.753C504.143 397.753 498.427 392.037 498.427 384.987C498.427 377.936 504.143 372.221 511.193 372.221C518.244 372.221 523.96 377.936 523.96 384.987Z" fill="white"/>
</mask>
<g mask="url(#mask1_1_2)">
<path d="M523.96 384.987C523.96 392.037 518.244 397.753 511.193 397.753C504.143 397.753 498.427 392.037 498.427 384.987C498.427 377.936 504.143 372.221 511.193 372.221C518.244 372.221 523.96 377.936 523.96 384.987Z" fill="url(#paint1_linear_1_2)"/>
</g>
<path d="M200.53 715.264C203.422 715.264 205.797 714.399 207.654 712.667C209.508 710.936 210.437 708.74 210.437 706.081C210.437 704.906 210.232 703.763 209.823 702.649C209.414 701.537 208.8 700.549 207.984 699.681C207.165 698.817 206.144 698.122 204.917 697.595C203.691 697.069 202.291 696.806 200.719 696.806H188.737V715.264H200.53ZM176 685.305H200.625C204.021 685.305 207.102 685.832 209.87 686.883C212.637 687.935 215.013 689.388 216.993 691.241C218.975 693.098 220.499 695.308 221.57 697.873C222.638 700.44 223.173 703.237 223.173 706.267C223.173 708.493 222.796 710.58 222.041 712.527C221.286 714.475 220.248 716.237 218.928 717.813C217.607 719.391 216.065 720.783 214.305 721.988C212.543 723.193 210.687 724.136 208.738 724.816L208.644 725.465L226.758 750.971V751.713H212.135L194.681 726.764H188.737V751.713H176V685.305Z" fill="#1B3255"/>
<path d="M251.858 697.177V712.573H278.935V724.445H251.858V739.843H281.954V751.713H239.121V685.305H281.954V697.177H251.858Z" fill="#1B3255"/>
<path d="M328.135 724.352L322.097 707.751L319.644 699.681H318.889L316.436 707.751L310.397 724.352H328.135ZM312.001 685.305H326.531L351.911 751.713H337.853L332.287 735.853H306.247L300.68 751.713H286.622L312.001 685.305Z" fill="#1B3255"/>
<path d="M417.58 741.047C414.245 745.005 410.315 748.017 405.785 750.088C401.257 752.161 396.193 753.197 390.596 753.197C385.563 753.197 380.893 752.299 376.585 750.508C372.277 748.713 368.551 746.273 365.405 743.179C362.26 740.088 359.776 736.424 357.952 732.189C356.127 727.955 355.216 723.396 355.216 718.51C355.216 713.624 356.127 709.065 357.952 704.828C359.776 700.593 362.26 696.932 365.405 693.839C368.551 690.747 372.277 688.304 376.585 686.51C380.893 684.719 385.563 683.823 390.596 683.823C396.005 683.823 400.769 684.749 404.889 686.604C409.008 688.457 412.673 691.148 415.881 694.675L406.917 703.205C404.904 700.918 402.593 699.093 399.984 697.734C397.373 696.375 394.276 695.692 390.691 695.692C387.545 695.692 384.589 696.234 381.821 697.317C379.053 698.399 376.648 699.929 374.604 701.908C372.56 703.888 370.94 706.284 369.745 709.096C368.551 711.908 367.953 715.047 367.953 718.51C367.953 721.973 368.551 725.109 369.745 727.924C370.94 730.736 372.56 733.132 374.604 735.112C376.648 737.091 379.053 738.62 381.821 739.703C384.589 740.784 387.545 741.325 390.691 741.325C394.464 741.325 397.813 740.567 400.739 739.052C403.664 737.539 406.257 735.391 408.523 732.606L417.58 741.047Z" fill="#1B3255"/>
<path d="M435.581 751.713V697.177H416.712V685.305H467.188V697.177H448.319V751.713H435.581Z" fill="#1B3255"/>
<path d="M478.228 685.305H490.965V751.713H478.228V685.305Z" fill="#1B3255"/>
<path d="M504.564 685.305H518.337L532.301 725.28L534.755 733.813H535.509L538.152 725.28L552.68 685.305H566.455L541.832 751.713H528.433L504.564 685.305Z" fill="#1B3255"/>
<path d="M606.972 724.352L600.935 707.751L598.481 699.681H597.725L595.273 707.751L589.235 724.352H606.972ZM590.839 685.305H605.368L630.748 751.713H616.689L611.123 735.853H585.084L579.517 751.713H565.46L590.839 685.305Z" fill="#1B3255"/>
<path d="M639.804 685.305H654.616L681.788 729.825H682.544L681.788 717.025V685.305H694.431V751.713H681.033L652.352 704.689H651.597L652.352 717.489V751.713H639.804V685.305Z" fill="#1B3255"/>
<path d="M733.457 739.843C737.168 739.843 740.44 739.332 743.271 738.311C746.101 737.291 748.459 735.853 750.345 733.999C752.232 732.144 753.648 729.903 754.592 727.275C755.535 724.647 756.007 721.725 756.007 718.51C756.007 715.295 755.535 712.373 754.592 709.744C753.648 707.118 752.232 704.876 750.345 703.02C748.459 701.167 746.101 699.729 743.271 698.708C740.44 697.688 737.168 697.177 733.457 697.177H723.929V739.843H733.457ZM711.192 685.305H734.024C739.369 685.305 744.181 686.111 748.459 687.717C752.735 689.327 756.385 691.599 759.403 694.535C762.423 697.472 764.733 700.98 766.337 705.061C767.943 709.143 768.744 713.625 768.744 718.51C768.744 723.456 767.943 727.969 766.337 732.051C764.733 736.13 762.423 739.625 759.403 742.53C756.385 745.439 752.735 747.695 748.459 749.301C744.181 750.909 739.369 751.713 734.024 751.713H711.192V685.305Z" fill="#1B3255"/>
<path d="M813.501 741.325C816.647 741.325 819.588 740.769 822.324 739.656C825.06 738.543 827.449 736.999 829.495 735.018C831.537 733.04 833.141 730.645 834.305 727.83C835.469 725.017 836.052 721.911 836.052 718.51C836.052 715.111 835.469 712.003 834.305 709.188C833.141 706.376 831.537 703.98 829.495 702.001C827.449 700.023 825.06 698.476 822.324 697.363C819.588 696.251 816.647 695.693 813.501 695.693C810.356 695.693 807.417 696.251 804.681 697.363C801.944 698.476 799.555 700.023 797.511 702.001C795.465 703.98 793.863 706.376 792.699 709.188C791.535 712.003 790.953 715.111 790.953 718.51C790.953 721.911 791.535 725.017 792.699 727.83C793.863 730.645 795.465 733.04 797.511 735.018C799.555 736.999 801.944 738.543 804.681 739.656C807.417 740.769 810.356 741.325 813.501 741.325ZM813.501 753.197C808.469 753.197 803.8 752.3 799.492 750.508C795.183 748.715 791.456 746.257 788.312 743.134C785.167 740.012 782.699 736.334 780.905 732.098C779.112 727.863 778.217 723.334 778.217 718.51C778.217 713.687 779.112 709.159 780.905 704.923C782.699 700.687 785.167 697.01 788.312 693.885C791.456 690.764 795.183 688.305 799.492 686.511C803.8 684.72 808.469 683.823 813.501 683.823C818.533 683.823 823.204 684.72 827.512 686.511C831.821 688.305 835.548 690.764 838.693 693.885C841.837 697.01 844.307 700.687 846.1 704.923C847.892 709.159 848.788 713.687 848.788 718.51C848.788 723.334 847.892 727.863 846.1 732.098C844.307 736.334 841.837 740.012 838.693 743.134C835.548 746.257 831.821 748.715 827.512 750.508C823.204 752.3 818.533 753.197 813.501 753.197Z" fill="#1B3255"/>
<path d="M248.958 812.837C247.354 814.776 245.461 816.251 243.282 817.265C241.102 818.279 238.665 818.787 235.971 818.787C233.549 818.787 231.301 818.347 229.228 817.469C227.154 816.592 225.36 815.396 223.847 813.883C222.333 812.368 221.137 810.575 220.259 808.501C219.381 806.428 218.943 804.195 218.943 801.803C218.943 799.411 219.381 797.179 220.259 795.105C221.137 793.032 222.333 791.237 223.847 789.724C225.36 788.211 227.154 787.015 229.228 786.136C231.301 785.259 233.549 784.82 235.971 784.82C238.575 784.82 240.868 785.273 242.851 786.181C244.833 787.089 246.597 788.406 248.141 790.132L243.827 794.311C242.858 793.191 241.745 792.297 240.49 791.63C239.233 790.965 237.742 790.632 236.016 790.632C234.503 790.632 233.08 790.897 231.748 791.427C230.415 791.956 229.258 792.705 228.274 793.675C227.291 794.644 226.51 795.816 225.935 797.193C225.36 798.571 225.073 800.108 225.073 801.803C225.073 803.499 225.36 805.035 225.935 806.412C226.51 807.789 227.291 808.963 228.274 809.93C229.258 810.9 230.415 811.649 231.748 812.179C233.08 812.709 234.503 812.973 236.016 812.973C237.833 812.973 239.445 812.604 240.853 811.861C242.26 811.12 243.509 810.067 244.599 808.705L248.958 812.837Z" fill="#3C91A1"/>
<path d="M274.842 812.973C276.356 812.973 277.771 812.701 279.088 812.156C280.404 811.612 281.555 810.855 282.539 809.887C283.522 808.917 284.294 807.744 284.855 806.367C285.415 804.989 285.695 803.468 285.695 801.803C285.695 800.137 285.415 798.617 284.855 797.239C284.294 795.861 283.522 794.689 282.539 793.72C281.555 792.751 280.404 791.995 279.088 791.449C277.771 790.904 276.356 790.632 274.842 790.632C273.328 790.632 271.913 790.904 270.596 791.449C269.279 791.995 268.128 792.751 267.145 793.72C266.161 794.689 265.389 795.861 264.829 797.239C264.268 798.617 263.989 800.137 263.989 801.803C263.989 803.468 264.268 804.989 264.829 806.367C265.389 807.744 266.161 808.917 267.145 809.887C268.128 810.855 269.279 811.612 270.596 812.156C271.913 812.701 273.328 812.973 274.842 812.973ZM274.842 818.787C272.419 818.787 270.172 818.347 268.098 817.469C266.025 816.592 264.231 815.388 262.718 813.859C261.203 812.33 260.016 810.529 259.153 808.454C258.29 806.383 257.859 804.164 257.859 801.803C257.859 799.441 258.29 797.225 259.153 795.151C260.016 793.076 261.203 791.276 262.718 789.747C264.231 788.218 266.025 787.015 268.098 786.136C270.172 785.259 272.419 784.82 274.842 784.82C277.264 784.82 279.511 785.259 281.585 786.136C283.658 787.015 285.452 788.218 286.966 789.747C288.48 791.276 289.668 793.076 290.531 795.151C291.394 797.225 291.825 799.441 291.825 801.803C291.825 804.164 291.394 806.383 290.531 808.454C289.668 810.529 288.48 812.33 286.966 813.859C285.452 815.388 283.658 816.592 281.585 817.469C279.511 818.347 277.264 818.787 274.842 818.787Z" fill="#3C91A1"/>
<path d="M302.814 785.547H308.854L318.799 802.756H319.161L329.107 785.547H335.191V818.06H329.107V802.029L329.469 796.58H329.107L320.841 811.158H317.164L308.854 796.58H308.49L308.854 802.029V818.06H302.814V785.547Z" fill="#3C91A1"/>
<path d="M347.769 785.547H353.809L363.753 802.756H364.117L374.061 785.547H380.147V818.06H374.061V802.029L374.425 796.58H374.061L365.797 811.158H362.119L353.809 796.58H353.445L353.809 802.029V818.06H347.769V785.547Z" fill="#3C91A1"/>
<path d="M404.621 818.787C402.715 818.787 400.981 818.475 399.423 817.855C397.863 817.235 396.539 816.335 395.449 815.153C394.36 813.972 393.512 812.542 392.907 810.861C392.3 809.181 391.999 807.268 391.999 805.118V785.547H398.128V805.481C398.128 806.571 398.264 807.569 398.537 808.477C398.809 809.387 399.219 810.175 399.763 810.84C400.308 811.506 400.989 812.028 401.807 812.405C402.624 812.785 403.561 812.973 404.621 812.973C405.712 812.973 406.665 812.785 407.483 812.405C408.3 812.028 408.981 811.506 409.527 810.84C410.071 810.175 410.48 809.387 410.752 808.477C411.025 807.569 411.161 806.571 411.161 805.481V785.547H417.291V805.118C417.291 807.147 416.996 809 416.405 810.68C415.816 812.36 414.968 813.799 413.863 814.994C412.757 816.191 411.425 817.121 409.867 817.788C408.307 818.453 406.559 818.787 404.621 818.787Z" fill="#3C91A1"/>
<path d="M429.143 785.547H436.272L449.349 807.342H449.713L449.349 801.076V785.547H455.435V818.06H448.987L435.183 795.037H434.819L435.183 801.303V818.06H429.143V785.547Z" fill="#3C91A1"/>
<path d="M468.013 785.547H474.143V818.06H468.013V785.547Z" fill="#3C91A1"/>
<path d="M493.624 818.06V791.359H484.543V785.547H508.836V791.359H499.755V818.06H493.624Z" fill="#3C91A1"/>
<path d="M527.453 802.939L516.509 785.547H523.821L530.315 796.308H530.677L536.944 785.547H544.347L533.584 802.939V818.06H527.453V802.939Z" fill="#3C91A1"/>
<path d="M570.228 785.547H590.844V791.359H576.359V799.26H589.391V805.072H576.359V818.06H570.228V785.547Z" fill="#3C91A1"/>
<path d="M616.547 812.973C618.06 812.973 619.476 812.701 620.792 812.156C622.111 811.612 623.26 810.855 624.244 809.887C625.227 808.917 626 807.744 626.559 806.367C627.119 804.989 627.4 803.468 627.4 801.803C627.4 800.137 627.119 798.617 626.559 797.239C626 795.861 625.227 794.689 624.244 793.72C623.26 792.751 622.111 791.995 620.792 791.449C619.476 790.904 618.06 790.632 616.547 790.632C615.033 790.632 613.617 790.904 612.301 791.449C610.984 791.995 609.833 792.751 608.849 793.72C607.865 794.689 607.095 795.861 606.535 797.239C605.973 798.617 605.693 800.137 605.693 801.803C605.693 803.468 605.973 804.989 606.535 806.367C607.095 807.744 607.865 808.917 608.849 809.887C609.833 810.855 610.984 811.612 612.301 812.156C613.617 812.701 615.033 812.973 616.547 812.973ZM616.547 818.787C614.124 818.787 611.877 818.347 609.804 817.469C607.729 816.592 605.936 815.388 604.423 813.859C602.908 812.33 601.721 810.529 600.857 808.454C599.996 806.383 599.563 804.164 599.563 801.803C599.563 799.441 599.996 797.225 600.857 795.151C601.721 793.076 602.908 791.276 604.423 789.747C605.936 788.218 607.729 787.015 609.804 786.136C611.877 785.259 614.124 784.82 616.547 784.82C618.968 784.82 621.217 785.259 623.289 786.136C625.364 787.015 627.157 788.218 628.671 789.747C630.184 791.276 631.373 793.076 632.236 795.151C633.099 797.225 633.531 799.441 633.531 801.803C633.531 804.164 633.099 806.383 632.236 808.454C631.373 810.529 630.184 812.33 628.671 813.859C627.157 815.388 625.364 816.592 623.289 817.469C621.217 818.347 618.968 818.787 616.547 818.787Z" fill="#3C91A1"/>
<path d="M656.325 800.213C657.719 800.213 658.86 799.789 659.753 798.942C660.647 798.095 661.093 797.02 661.093 795.718C661.093 795.143 660.995 794.583 660.799 794.037C660.601 793.493 660.305 793.009 659.912 792.584C659.519 792.161 659.027 791.82 658.437 791.564C657.847 791.305 657.172 791.176 656.416 791.176H650.649V800.213H656.325ZM644.519 785.547H656.371C658.005 785.547 659.489 785.804 660.821 786.318C662.153 786.834 663.296 787.544 664.249 788.453C665.203 789.36 665.937 790.444 666.451 791.699C666.967 792.954 667.223 794.327 667.223 795.808C667.223 796.899 667.043 797.92 666.679 798.873C666.316 799.828 665.816 800.689 665.18 801.461C664.545 802.234 663.803 802.915 662.955 803.506C662.108 804.096 661.215 804.559 660.276 804.891L660.231 805.208L668.949 817.696V818.06H661.911L653.509 805.844H650.649V818.06H644.519V785.547Z" fill="#3C91A1"/>
<path d="M710.635 804.664L707.728 796.535L706.549 792.584H706.185L705.004 796.535L702.099 804.664H710.635ZM702.871 785.547H709.863L722.079 818.06H715.312L712.633 810.293H700.1L697.421 818.06H690.655L702.871 785.547Z" fill="#3C91A1"/>
<path d="M731.932 785.547H738.061V812.247H751.821V818.06H731.932V785.547Z" fill="#3C91A1"/>
<path d="M762.22 785.547H768.349V812.247H782.109V818.06H762.22V785.547Z" fill="#3C91A1"/>
<defs>
<linearGradient id="paint0_linear_1_2" x1="379.387" y1="455.32" x2="626.455" y2="455.32" gradientUnits="userSpaceOnUse">
<stop stop-color="#41BEA6"/>
<stop offset="1" stop-color="#357E9D"/>
</linearGradient>
<linearGradient id="paint1_linear_1_2" x1="523.96" y1="384.987" x2="498.427" y2="384.987" gradientUnits="userSpaceOnUse">
<stop stop-color="#E8B728"/>
<stop offset="0.00446941" stop-color="#E8B728"/>
<stop offset="1" stop-color="#E1EB2E"/>
</linearGradient>
</defs>
</svg>
