<svg width="717" height="828" viewBox="0 0 717 828" fill="none" xmlns="http://www.w3.org/2000/svg">
<path d="M197.483 153.695C222.014 153.148 245.323 153.69 269.792 153.884C302.09 153.979 334.387 154.235 366.681 154.654L420.927 155.185C440.024 155.384 461.117 154.695 479.504 159.584C517.874 169.79 550.562 190.225 571.157 224.754C592.286 260.191 597.791 312.008 587.687 351.607C577.871 390.07 557.333 425.041 525.2 448.815C514.379 456.82 503.699 462.809 492.245 469.675L553.283 572.388C558.107 580.481 582.421 619.438 583.75 625.176C583.229 627.673 582.653 627.975 580.881 629.768C574.918 631.146 542.757 630.408 534.693 630.38L428.985 629.937C421.623 616.935 412.412 596.099 405.782 582.134L365.746 497.344C362.188 502.472 357.582 508.115 353.712 513.103L186.097 725.501C178.667 734.931 135.123 792.649 128.3 797.501C126.319 797.909 125.072 798.408 123.205 797.712C123.267 795.026 129.751 775.737 131.163 771.286L147.088 720.466L205.548 535.748C214.642 506.959 225.73 475.031 233.794 446.426C198.234 446.117 162.784 446.495 127.236 445.795C128.896 431.66 138.276 396.843 141.966 381.605L170.733 262.644L188.008 190.295C190.123 181.436 194.468 161.278 197.483 153.695Z" fill="#1A9CA1"/>
<path d="M312.723 221.696C314.224 221.603 315.727 221.539 317.232 221.503C338.452 221.053 359.382 238.761 373.719 252.549C389.005 238.57 431.614 202.103 451 233.721C461.047 250.107 455.95 280.031 451.428 297.97C458.418 299.831 465.252 302.246 471.861 305.194C489.369 313.035 514.035 330.288 503.143 353.219C494.474 371.465 469.414 380.467 451.428 386.465C456.737 410.221 465.765 454.925 433.639 463.42C431.896 463.506 430.152 463.548 428.408 463.546C409.234 463.407 386.558 444.69 373.888 431.887C358.377 448.449 316.622 481.691 297.152 451.471C285.568 433.494 291.56 406.148 296.009 386.535C288.506 384.154 281.153 381.326 273.989 378.065C239.409 361.998 225.921 334.63 264.552 311.206C274.845 304.964 284.933 301.815 296.227 298C289.963 274.491 281.819 231.409 312.723 221.696Z" fill="white"/>
<path d="M359.256 298.498C370.653 297.419 387.184 298.247 398.518 298.927C408.496 315.089 414.543 324.458 423.993 341.743C413.896 358.721 411.512 367.762 398.399 385.803L388.288 386.213C375.371 386.849 362.265 386.316 349.326 386.007C338.627 371.616 332.136 358.317 324.084 342.412C331.367 326.777 339.476 313.423 348.8 298.934L359.256 298.498Z" fill="#2397A0"/>
<path d="M368.839 318.873C381.847 316.082 394.651 324.363 397.45 337.372C400.241 350.379 391.958 363.189 378.957 365.985C365.942 368.781 353.133 360.5 350.339 347.488C347.545 334.477 355.832 321.665 368.839 318.873Z" fill="#E6D046"/>
<path d="M315.329 231.53L316.248 231.494C335.654 230.887 353.719 247.461 366.997 259.865C358.039 269.659 351.786 277.93 343.855 288.535C343.106 288.997 310.396 294.278 305.746 295.436C302.136 277.962 292.161 239.454 315.329 231.53Z" fill="#2397A0"/>
<path d="M306.041 389.302C314.884 391.666 333.708 394.631 342.601 395.304C350.799 406.129 357.674 414.778 366.821 424.795C360.81 430.714 354.812 435.675 348.267 440.931C346.813 442.018 345.316 443.045 343.778 444.007C322.283 457.429 302.079 458.803 300.66 427.103C300.065 413.801 302.794 402.084 306.041 389.302Z" fill="#2397A0"/>
<path d="M426.264 231.558C456.526 229.076 445.276 278.943 441.817 295.295C429.371 292.532 419.232 290.279 406.443 289.608C405.444 289.473 404.446 289.156 403.764 288.324C396.205 279.018 389.216 268.431 380.603 260.062C394.342 247.051 407.314 235.192 426.264 231.558Z" fill="#2397A0"/>
<path d="M439.138 389.741C440.72 389.494 439.939 389.389 441.465 390.136C447.013 402.476 449.825 432.881 442.393 445.23C432.901 460.999 412.363 448.979 401.296 441.915C394.588 437.334 387.191 430.553 380.954 425.068C389.209 415.497 396.993 405.533 404.277 395.209C416.842 394.505 427.016 392.404 439.138 389.741Z" fill="#2397A0"/>
<path d="M298.26 308.11C299.234 308.605 310.858 338.428 312.524 342.337C307.012 354.155 303.362 364.519 299.049 376.816C289.231 374.051 283.326 371.512 274.109 367.069C224.276 341.77 267.208 317.724 298.26 308.11Z" fill="#2397A0"/>
<path d="M448.75 307.801C480.264 317.769 522.374 340.186 473.591 367.221C465.4 371.111 457.236 374.006 448.63 376.766C444.735 365.149 440.193 353.758 435.032 342.645C440.354 330.61 444.58 320.269 448.75 307.801Z" fill="#2397A0"/>
<path d="M389.764 396.292L390.404 396.976C386.312 403.406 378.767 412.232 373.705 417.871L367.222 410.218C363.51 405.616 359.832 400.982 356.197 396.316C367.025 396.851 378.943 396.696 389.764 396.292Z" fill="#2397A0"/>
<path d="M373.719 266.99C377.558 270.079 387.88 284.012 390.932 288.285L373.283 288.167C367.834 288.105 362.005 288.266 356.521 288.317C362.293 281.402 367.792 274.064 373.719 266.99Z" fill="#2397A0"/>
<path d="M411.835 300.698C420.603 301.147 430.004 303.3 438.667 305.027C436.909 311.576 435.249 316.027 432.746 322.311L428.9 330.636C424.056 320.434 417.967 310.186 411.835 300.698Z" fill="#2397A0"/>
<path d="M329.541 301.218C331.028 300.915 333.961 300.458 335.099 301.38C332.637 305.387 319.858 328.53 317.793 329.516C314.659 321.387 311.702 313.192 308.925 304.934C315.772 303.559 322.645 302.32 329.541 301.218Z" fill="#2397A0"/>
<path d="M318.195 354.878C319.603 356.174 333.097 380.028 335.747 384.164L327.587 383.048C321.499 382.166 314.785 380.638 308.706 379.393C311.599 371.119 314.764 362.943 318.195 354.878Z" fill="#2397A0"/>
<path d="M429.153 354.245C432.5 361.206 436.276 371.89 438.941 379.21C433.189 380.678 429.069 381.703 423.233 382.571C420.104 383.141 415.618 383.394 412.356 383.676C419.078 373.986 423.746 364.677 429.153 354.245Z" fill="#2397A0"/>
<path d="M356.746 0.0128113C360.627 -0.459032 386.643 12.2456 391.621 14.5141L627.983 122.364C654.491 134.459 681.097 146.352 707.521 158.632C716.225 162.674 715.825 165.484 715.958 174.347C716.099 184.11 716.014 193.911 716.007 203.682L715.979 382.148C715.986 401.975 716.38 423.323 715.726 443.048C715.213 457.726 713.8 472.359 711.507 486.866C706.03 522.162 694.942 556.357 678.678 588.16C660.313 623.643 634.515 651.954 605.863 679.533C538.911 743.974 446.577 799.28 357.843 827.556C348.056 824.968 334.433 819.567 325.018 815.883C276.939 796.657 231.118 772.207 188.378 742.968C193.875 736.471 199.106 729.488 204.186 722.66C249.723 756.013 305.861 781.067 358.145 801.65C373.937 794.688 389.919 788.57 405.76 781.405C477.409 748.974 543.046 706.894 598.726 650.969C612.557 637.074 631.105 616.675 642.123 600.15C668.947 559.91 685.133 509.205 689.204 461.16C691.124 438.525 690.639 415.219 690.646 392.555L690.667 178.408C681.097 173.466 667.921 167.873 657.866 163.288L593.291 133.957C515.35 98.4375 435.271 62.9227 357.976 26.3516C330.978 39.469 303.279 51.9578 275.879 64.2623C192.211 101.837 109.19 141.252 25.3108 178.325C26.2066 239.439 24.768 301.426 25.3502 362.608C25.616 390.594 24.6949 420.239 25.9211 447.999C28.207 499.734 45.1854 559.653 75.0731 602.435C92.4143 627.258 124.534 658.62 147.126 678.844C144.197 685.799 140.763 697.282 138.308 704.743C114.779 687.142 78.754 648.431 60.6119 625.514C26.0568 581.859 6.1394 517.701 1.49245 462.7C-0.507939 439.023 0.155121 409.895 0.188168 385.726L0.220505 214.521C0.174099 199.697 -0.601445 176.977 1.06356 162.766C10.6457 156.755 34.2679 146.705 45.2001 141.731L275.89 36.5437C301.959 24.6844 330.495 10.9784 356.746 0.0128113Z" fill="#0D385B"/>
</svg>
